<svg width="51" height="49" viewBox="0 0 51 49" fill="none" xmlns="http://www.w3.org/2000/svg">
<path fill-rule="evenodd" clip-rule="evenodd" d="M34.2786 0.860207C33.501 1.13724 33.1445 1.54522 32.2585 3.17188C31.5857 4.40725 30.2805 6.78035 27.212 12.3474C23.7371 18.6516 23.7224 18.4659 27.878 20.7711C29.0858 21.4412 30.064 22.0335 30.0516 22.0875C29.9894 22.3594 26.6549 28.25 26.3103 28.6968C25.4212 29.8491 23.4608 30.8715 22.1111 30.8868C21.8283 30.8899 18.6001 25.5256 18.6001 25.0524C18.6001 24.9979 19.3654 24.5301 20.3007 24.0128C22.5112 22.7903 22.8992 22.3622 22.8946 21.1509C22.8918 20.4183 23.0563 20.7496 19.342 13.9949C14.6653 5.49029 15.8369 5.85843 7.70733 10.3395C-0.17627 14.685 0.0121955 14.4224 2.08629 18.1744C2.61184 19.125 3.19794 20.1884 3.38875 20.5375C8.08064 29.1197 8.05613 29.0816 9.09689 29.3842C10.0636 29.6653 9.98834 29.6949 14.2076 27.372C15.7676 26.5132 17.0789 25.8106 17.1218 25.8106C17.1647 25.8106 17.7858 26.8763 18.5021 28.1786C19.2184 29.481 19.9303 30.7322 20.0839 30.9588L20.3634 31.3711L19.7502 31.6792C19.4131 31.8486 19.0206 32.0696 18.878 32.1703C18.5758 32.3836 18.4048 32.4045 18.4048 32.228C18.4048 32.0184 16.4601 28.5079 16.2427 28.3251C15.821 27.9704 15.1543 28.201 15.0353 28.7427C14.9801 28.994 15.112 29.2954 15.9218 30.7673C16.445 31.7185 16.9509 32.717 17.046 32.9864L17.219 33.4762L16.982 33.7691C12.0819 39.8263 16.0246 48.5006 23.6779 48.5006C30.1206 48.5006 34.2472 42.2278 31.8308 36.1073C31.1307 34.3339 31.0315 33.0306 31.4924 31.6624C31.8275 30.6676 35.1065 24.815 35.2905 24.8832C35.3754 24.9148 36.4115 25.4756 37.5931 26.1296C40.3967 27.6815 41.4576 27.7771 42.3668 26.5598C42.5504 26.3141 46.5144 19.192 48.1645 16.1433C48.3534 15.7942 48.7804 15.0252 49.1133 14.4344C50.7209 11.5815 50.8629 11.2693 50.8658 10.58C50.8722 9.09349 51.0084 9.19368 42.9453 4.7502C35.1246 0.440409 35.2716 0.50642 34.2786 0.860207ZM42.0876 6.04045C48.9041 9.79491 49.3599 10.077 49.3599 10.5408C49.3599 10.8053 48.7789 11.9413 48.6426 11.9431C48.5782 11.944 33.896 3.89674 33.7491 3.78005C33.6776 3.72331 34.4303 2.47573 34.5934 2.38072C34.9811 2.15466 35.4356 2.37652 42.0876 6.04045ZM41 9.54258C44.7536 11.6125 47.8446 13.3258 47.8689 13.3503C47.9397 13.4211 47.0111 15.0691 46.9004 15.0691C46.8453 15.0691 44.3677 13.7288 41.3943 12.0908C35.765 8.98939 35.5953 8.91313 35.2007 9.30773C34.4693 10.039 34.4843 10.0504 40.7444 13.5013C43.7106 15.1364 46.1375 16.507 46.1375 16.5469C46.1375 16.6997 41.3144 25.3815 41.1189 25.5809C40.6146 26.0949 41.338 26.4316 32.6129 21.622C26.4593 18.2299 26.2168 18.0781 26.2168 17.6188C26.2168 17.3489 31.0823 8.41824 31.262 8.35838C31.315 8.3407 31.7585 8.54714 32.2477 8.81704C33.3994 9.45235 33.7662 9.45362 34.0273 8.82319C34.2462 8.29461 34.0461 8.03604 32.9538 7.43617L31.9899 6.90681L32.4774 6.00579L32.9649 5.10487L33.5701 5.44205C33.903 5.62749 37.2464 7.47279 41 9.54258ZM14.6901 8.91313C14.7953 9.0183 14.9713 9.28068 15.0813 9.4963L15.2813 9.88826L15.0609 10.0266C14.7216 10.2397 3.28475 16.5339 3.12685 16.5945C2.96309 16.6574 2.48782 15.7933 2.48782 15.4327C2.48782 15.0055 2.75597 14.8363 8.26188 11.788C14.1093 8.55075 14.2602 8.48327 14.6901 8.91313ZM16.4937 12.0538L16.8464 12.7003L12.457 15.1173C7.69571 17.7392 7.68907 17.7441 7.95096 18.3765C8.06414 18.6496 8.40338 18.8775 8.69701 18.8775C8.77708 18.8775 10.801 17.7967 13.1945 16.4757C15.588 15.1547 17.5813 14.1111 17.624 14.1565C17.7267 14.2656 21.2835 20.7305 21.3661 20.958C21.548 21.4596 21.2458 21.7288 19.3199 22.7806C18.3064 23.3341 17.1915 23.9502 16.8424 24.1496C14.3764 25.5585 9.90612 27.9583 9.7532 27.9555C9.2833 27.9467 9.08468 27.6593 7.25443 24.341C6.23681 22.4961 5.39624 20.948 5.38638 20.901C5.37651 20.8538 5.6761 20.641 6.05206 20.428C7.10541 19.8313 7.31546 19.4431 6.85767 18.9397C6.48416 18.5287 6.29345 18.5389 5.38618 19.0174L4.55303 19.4568L4.16467 18.7521C3.95111 18.3645 3.78618 18.037 3.79819 18.0242C3.94174 17.8716 16.0299 11.291 16.0767 11.3399C16.1121 11.3769 16.2998 11.6981 16.4937 12.0538ZM35.4267 14.0874C34.488 14.4916 34.9695 15.5573 36.091 15.5573C37.0151 15.5573 37.5443 16.0023 37.5443 16.7793C37.5443 18.3419 35.4356 18.6921 34.9896 17.2035C34.6895 16.2016 33.4409 16.2289 33.4439 17.2374C33.4506 19.4886 36.8329 20.5145 38.3954 18.7393C40.2339 16.6505 37.9146 13.0161 35.4267 14.0874ZM12.4117 18.6302C11.5374 18.9419 10.8894 19.8055 10.8098 20.7653C10.5781 23.5583 14.4579 24.559 15.6051 22.0023C16.4984 20.011 14.4895 17.8896 12.4117 18.6302ZM13.9622 20.285C14.4155 20.7383 14.3805 21.375 13.8818 21.7473C12.9474 22.4449 11.8125 21.1581 12.6359 20.3347C13.0137 19.9569 13.6117 19.9344 13.9622 20.285ZM32.6299 23.3913C33.2382 23.7257 33.7359 24.0357 33.7359 24.0804C33.7359 24.125 32.9632 25.5633 32.0187 27.2767C29.4484 31.9398 29.1605 33.2647 30.1336 35.9546C30.3011 36.4176 30.5489 37.1039 30.6844 37.4798C32.9544 43.7781 25.2092 49.5766 19.6236 45.7608C13.9502 41.8849 15.868 33.7136 22.7721 32.345C26.175 31.6704 27.0104 30.8827 29.879 25.6427C30.7382 24.0733 31.4598 22.788 31.4825 22.7864C31.5054 22.7847 32.0217 23.057 32.6299 23.3913ZM22.5157 34.4574C21.7664 34.6198 21.432 34.8916 21.432 35.3378C21.432 36.0061 21.8562 36.1976 22.8458 35.9761C26.5767 35.1412 29.0676 39.9015 26.224 42.4318C23.2129 45.111 18.7162 41.9096 20.2179 38.156C20.7839 36.7413 19.5875 35.9706 18.9051 37.3104C16.2779 42.4686 23.1128 47.5115 27.3079 43.5101C31.2083 39.7897 27.781 33.3152 22.5157 34.4574Z" fill="#40004C"/>
</svg>
