<svg width="51" height="50" viewBox="0 0 51 50" fill="none" xmlns="http://www.w3.org/2000/svg">
<path fill-rule="evenodd" clip-rule="evenodd" d="M25.4374 0.510431C25.0593 0.807768 25.0347 3.1675 25.406 3.51634C26.1227 4.18951 26.5483 3.63647 26.5483 2.03201C26.5483 0.423048 26.1836 -0.0765201 25.4374 0.510431ZM17.7176 3.71213C17.3612 4.10594 17.4963 4.4065 18.4618 5.368C19.5694 6.47094 20.0358 6.56673 20.326 5.75086C20.6012 4.97732 18.2416 3.13309 17.7176 3.71213ZM32.2945 4.38861C31.1765 5.51706 31.0826 6.27018 32.0598 6.27018C32.4656 6.27018 34.1723 4.60052 34.1723 4.20358C34.1723 3.20669 33.3891 3.28381 32.2945 4.38861ZM24.3398 5.1384C22.7611 5.49839 21.1101 6.55823 20.2438 7.76761C19.8528 8.31341 19.8528 8.31341 13.1019 8.31811C5.68321 8.32329 5.73892 8.31918 5.02011 8.91366C4.42505 9.4058 4.14169 9.98728 4.08783 10.8268C4.04131 11.5507 4.04131 11.5507 3.47273 11.8537C2.36138 12.4461 1.35355 13.7698 1.0262 15.0671C0.787515 16.0129 0.828665 41.8911 1.07009 42.6797C2.12651 46.1308 2.86829 46.3446 13.7863 46.3466C18.3055 46.3475 22.0509 46.3804 22.109 46.4199C22.1673 46.4594 22.3616 46.7689 22.5409 47.1078C23.9808 49.83 27.882 49.8133 29.1868 47.0794C29.5716 46.2731 28.7092 46.3451 37.9743 46.3451C47.8551 46.3451 47.8566 46.3449 49.3129 44.8886C50.8303 43.3713 50.8376 43.3289 50.8376 36.0604C50.8376 29.3143 50.869 29.6065 50.1439 29.6065C49.4013 29.6065 49.4203 29.4362 49.4203 36.0838C49.4203 45.5994 50.2396 44.9767 37.7205 44.9767C30.9872 44.9767 29.4166 45.0011 29.1598 45.1096C28.73 45.2912 28.3342 45.7113 28.0425 46.2955C27.0491 48.2841 24.4938 48.2681 23.6597 46.2682C23.4679 45.8084 22.9752 45.2863 22.5683 45.1117C22.3091 45.0005 20.8041 44.9767 14.0077 44.9767C4.15616 44.9767 4.23132 44.986 3.12467 43.633C2.23735 42.5482 2.30743 43.8274 2.31105 28.772C2.31457 13.968 2.26618 15.0144 2.99027 14.0712C4.10259 12.6223 4.01286 11.5287 4.06721 27.205C4.13045 45.469 2.47076 43.1196 15.31 43.1196C25.0249 43.1196 24.8112 43.1307 25.5264 42.5852C25.8641 42.3277 25.8641 42.3277 26.2018 42.5852C26.917 43.1307 26.7032 43.1196 36.4181 43.1196C46.3587 43.1196 45.9854 43.1428 46.7644 42.4759C47.6945 41.6797 47.6055 43.1987 47.6609 27.1873C47.7098 13.0634 47.7098 13.0634 48.2713 13.5903C49.4112 14.6597 49.3643 14.3517 49.4203 21.1415C49.4669 26.796 49.4778 27.0787 49.6554 27.2749C49.9021 27.5474 50.4048 27.5473 50.6514 27.2747C50.9344 26.9619 50.9403 15.8398 50.6579 14.9247C50.2454 13.5877 49.3419 12.4328 48.2554 11.8537C47.6868 11.5507 47.6868 11.5507 47.6403 10.8268C47.5864 9.98728 47.3031 9.4058 46.708 8.91366C45.5871 7.98656 41.2098 8.04687 41.2098 8.98941C41.2098 9.60832 41.4708 9.69121 43.4193 9.69121C45.4515 9.69121 45.7695 9.76315 46.0945 10.2962C46.4055 10.8063 46.4055 40.6361 46.0945 41.1461C45.7102 41.7766 46.1163 41.7512 36.4204 41.7512C26.7245 41.7512 27.1306 41.7766 26.7463 41.1461C26.0857 40.0628 26.5225 26.7222 27.2197 26.6828C28.5472 26.6077 29.3828 25.7223 29.3828 24.3905C29.3828 23.8466 29.4063 23.7663 29.5651 23.7663C30.684 23.7663 31.0136 20.6998 29.9696 20.0032C29.7015 19.8243 29.6767 19.7605 29.6764 19.252C29.676 18.4548 29.7762 18.27 30.7795 17.218C32.8462 15.051 33.4621 12.6464 32.6508 9.91113C32.5856 9.69121 32.5856 9.69121 35.6759 9.69121C39.115 9.69121 39.1572 9.683 39.1572 9.01414C39.1572 8.34283 39.0487 8.32348 35.2587 8.31723C31.8753 8.31175 31.8753 8.31175 31.4469 7.72353C29.9478 5.66534 26.8963 4.55536 24.3398 5.1384ZM27.7329 6.68363C31.9081 8.21459 32.8958 13.0285 29.7138 16.3378C28.6027 17.4933 28.3853 17.8955 28.3133 18.928C28.2588 19.7099 28.2588 19.7099 27.4035 19.7382C26.3638 19.7725 26.024 17.3097 26.9844 16.7014C28.6609 15.6396 27.855 12.9178 25.8641 12.9178C23.8351 12.9178 23.0389 15.7513 24.7872 16.7498C25.7319 17.2892 25.3321 19.7588 24.3002 19.7588C23.4205 19.7588 23.4205 19.7588 23.4205 19.1272C23.4205 18.0762 23.1449 17.5126 22.1396 16.5073C17.5792 11.9468 21.8121 4.51255 27.7329 6.68363ZM19.0842 9.83831C18.1903 12.1679 18.9005 15.0942 20.8537 17.1292C22.1195 18.448 22.4731 19.5657 21.7583 19.9879C20.7525 20.5821 20.9354 23.2776 22.0122 23.7275C22.3172 23.855 22.3244 23.8726 22.3604 24.5877C22.4249 25.8626 23.3135 26.6986 24.6045 26.6986C25.1799 26.6986 25.1799 26.6986 25.1795 33.7606C25.1791 41.7042 25.218 41.2886 24.4441 41.612C23.8103 41.8768 6.32089 41.7685 5.95591 41.4974C5.40952 41.0916 5.43855 41.9768 5.43738 25.7212C5.43621 8.73566 5.37209 10.1726 6.14622 9.83616C6.63777 9.6224 19.1663 9.62455 19.0842 9.83831ZM14.5329 11.4149C13.8347 12.3024 16.4861 13.1158 17.4938 12.3232C17.7901 12.09 17.8327 11.7079 17.5991 11.3747C17.3433 11.0092 14.8261 11.0422 14.5329 11.4149ZM34.1386 11.3361C33.5107 12.0299 34.1237 12.5258 35.6092 12.5258C37.022 12.5258 37.2955 12.4056 37.2986 11.7834C37.3016 11.1552 34.6428 10.7789 34.1386 11.3361ZM8.62744 14.2685C8.37341 14.5491 8.42091 15.0178 8.72783 15.2592C9.15858 15.598 15.5244 15.5254 15.8052 15.1784C16.0463 14.8806 16.0429 14.5316 15.7965 14.2852C15.5058 13.9945 8.8894 13.979 8.62744 14.2685ZM35.9317 14.2852C35.6853 14.5316 35.6818 14.8806 35.923 15.1784C36.2037 15.5254 42.5695 15.598 43.0003 15.2592C43.3171 15.0099 43.3592 14.5008 43.0837 14.2514C42.7814 13.9778 36.2081 14.0087 35.9317 14.2852ZM26.3083 14.5251C26.7562 14.9729 26.4883 15.6536 25.8641 15.6536C25.2241 15.6536 24.9405 14.8786 25.4374 14.4878C25.7756 14.2217 26.0153 14.232 26.3083 14.5251ZM8.67964 17.319C8.38709 17.5915 8.38885 18.13 8.68296 18.336C9.08137 18.615 15.5273 18.559 15.7926 18.2742C16.0591 17.9883 16.0441 17.6518 15.752 17.3597C15.4059 17.0136 9.04667 16.977 8.67964 17.319ZM35.9761 17.3597C35.684 17.6518 35.669 17.9883 35.9355 18.2742C36.2009 18.559 42.6468 18.615 43.0452 18.336C43.3393 18.13 43.341 17.5915 43.0485 17.319C42.6815 16.977 36.3223 17.0136 35.9761 17.3597ZM18.4656 18.225C17.3437 19.3468 17.2612 20.1498 18.2679 20.1498C19.0683 20.1498 20.6158 17.9111 20.1027 17.4955C19.6717 17.1465 19.4416 17.2491 18.4656 18.225ZM31.6459 17.4863C31.1489 17.9069 31.232 18.1273 32.2838 19.1791C33.3165 20.2119 33.4803 20.289 33.9147 19.9472C34.4068 19.5602 34.2904 19.2529 33.2625 18.225C32.2938 17.2563 32.0496 17.1448 31.6459 17.4863ZM8.68296 20.3997C8.39892 20.5986 8.38729 21.1466 8.66117 21.4205C8.99994 21.7592 15.409 21.7191 15.752 21.376C16.0531 21.0749 16.0582 20.7349 15.7658 20.46C15.464 20.1766 9.07912 20.1221 8.68296 20.3997ZM35.9487 20.4737C35.6703 20.7702 35.6797 21.0796 35.9761 21.376C36.3191 21.7191 42.7282 21.7592 43.067 21.4205C43.3408 21.1466 43.3292 20.5986 43.0452 20.3997C42.6336 20.1114 36.2264 20.1782 35.9487 20.4737ZM29.1874 21.7626C29.1874 22.3979 29.1874 22.3979 25.8641 22.3979C22.5408 22.3979 22.5408 22.3979 22.5408 21.7626C22.5408 21.1272 22.5408 21.1272 25.8641 21.1272C29.1874 21.1272 29.1874 21.1272 29.1874 21.7626ZM8.9544 23.3469C8.44779 23.5332 8.29345 24.1666 8.67133 24.5087C8.92028 24.7341 17.6425 24.8577 18.3667 24.6461C19.0114 24.4578 19.1135 23.7243 18.5367 23.426C18.2492 23.2773 9.34361 23.2038 8.9544 23.3469ZM33.1965 23.4018C32.6774 23.6676 32.7145 24.4447 33.256 24.6507C33.7942 24.8553 42.8183 24.7246 43.0568 24.5087C43.3292 24.2621 43.3292 23.7593 43.0568 23.5127C42.7936 23.2744 33.6461 23.1715 33.1965 23.4018ZM28.0144 24.3572C28.0144 25.2608 27.8611 25.3302 25.8641 25.3302C23.8671 25.3302 23.7137 25.2608 23.7137 24.3572C23.7137 23.8641 23.7137 23.8641 25.8641 23.8641C28.0144 23.8641 28.0144 23.8641 28.0144 24.3572ZM8.66117 26.6009C8.38729 26.8748 8.39892 27.4227 8.68296 27.6216C9.04559 27.8757 19.7869 27.8493 20.1027 27.5936C20.4053 27.3485 20.4053 26.8307 20.1027 26.5856C19.7415 26.2932 8.95449 26.3075 8.66117 26.6009ZM31.6459 26.5764C31.3342 26.8403 31.2914 27.1998 31.5348 27.5092C31.7919 27.8362 42.5884 27.9416 43.0452 27.6216C43.3292 27.4227 43.3408 26.8748 43.067 26.6009C42.7814 26.3153 31.9819 26.2922 31.6459 26.5764ZM8.62744 29.712C8.32805 30.0427 8.42687 30.5792 8.82577 30.7892C9.27451 31.0254 21.4876 30.9404 21.7945 30.699C22.1096 30.4512 22.1379 30.01 21.8566 29.7287C21.5639 29.436 8.89164 29.42 8.62744 29.712ZM29.8716 29.7287C29.5903 30.01 29.6185 30.4512 29.9336 30.699C30.2405 30.9404 42.4536 31.0254 42.9024 30.7892C43.3094 30.575 43.4067 29.9873 43.0837 29.695C42.778 29.4183 30.1496 29.4506 29.8716 29.7287ZM8.72323 32.7659C8.41104 33.0114 8.37096 33.5224 8.64445 33.7699C8.96974 34.0643 21.6922 34.011 21.8999 33.7144C22.1334 33.3812 22.0909 32.999 21.7945 32.7659C21.3896 32.4473 9.12819 32.4473 8.72323 32.7659ZM29.9336 32.7659C29.6214 33.0114 29.5814 33.5224 29.8548 33.7699C30.1449 34.0324 42.8625 34.0161 43.1007 33.7529C43.3529 33.4742 43.3072 33.0037 43.0049 32.7659C42.5999 32.4473 30.3386 32.4473 29.9336 32.7659ZM8.66117 35.8865C8.55257 35.9951 8.46568 36.2123 8.46568 36.3753C8.46568 37.0965 8.09787 37.0595 15.2589 37.0595C21.5308 37.0595 21.6651 37.0555 21.8566 36.864C22.1168 36.6038 22.108 36.1417 21.8381 35.8903C21.5053 35.5802 8.97111 35.5766 8.66117 35.8865ZM29.89 35.8903C29.6202 36.1417 29.6114 36.6038 29.8716 36.864C30.063 37.0555 30.1973 37.0595 36.4693 37.0595C43.6303 37.0595 43.2625 37.0965 43.2625 36.3753C43.2625 35.6541 43.628 35.691 36.4877 35.691C30.1983 35.691 30.1008 35.694 29.89 35.8903Z" fill="#BABABA"/>
</svg>
