<svg width="51" height="45" viewBox="0 0 51 45" fill="none" xmlns="http://www.w3.org/2000/svg">
<path fill-rule="evenodd" clip-rule="evenodd" d="M7.14473 0.654868C6.72051 0.869554 0.866699 10.5059 0.866699 10.9894C0.866699 11.5614 1.18957 11.7669 2.1658 11.8161C2.99125 11.8578 2.99674 11.8601 2.99674 12.1721C2.99674 13.4947 4.37017 15.5693 5.65089 16.1813C6.00695 16.3514 6.00695 16.3514 6.04327 18.5307C6.08239 20.8735 6.20403 21.2506 6.92051 21.2506C7.61468 21.2506 7.75874 20.8506 7.79641 18.8181C7.8315 16.9262 7.8315 16.9262 8.77365 16.7977C10.0799 16.6196 11.0416 16.1446 11.9356 15.236C12.6347 14.5256 12.6347 14.5256 13.1128 15.0477C15.1823 17.3076 18.6696 17.3737 20.8159 15.1938C21.4564 14.5433 21.4564 14.5433 22.1201 15.2155C24.2492 17.3718 27.5748 17.3237 29.7231 15.1057C30.2723 14.5385 30.2723 14.5385 30.9151 15.1914C33.0612 17.3711 36.5502 17.3087 38.6151 15.0535C39.0879 14.5374 39.0879 14.5374 39.7923 15.2409C40.6985 16.146 41.6675 16.6215 42.9669 16.7987C43.916 16.9281 43.916 16.9281 43.916 27.1051C43.916 37.282 43.916 37.282 33.49 37.282C23.064 37.282 23.064 37.282 23.064 34.0559C23.064 30.2526 22.9214 29.8234 21.8435 30.3809C21.3805 30.6202 21.3824 30.6045 21.3824 34.0975C21.3824 37.2847 21.3824 37.2847 17.2064 37.2553C13.0304 37.2259 13.0304 37.2259 13.0013 31.0881C12.9724 24.9502 12.9724 24.9502 17.1773 24.9502C21.3824 24.9502 21.3824 24.9502 21.3824 26.3566C21.3824 27.9368 21.5502 28.3134 22.2546 28.3134C22.94 28.3134 23.064 27.9884 23.064 26.1914C23.064 23.2231 23.2835 23.3331 17.2842 23.2931C10.6481 23.2488 11.3585 22.3496 11.318 30.844C11.2873 37.282 11.2873 37.282 9.55235 37.282C7.81737 37.282 7.81737 37.282 7.81737 30.6641C7.81737 22.8827 7.82107 22.9061 6.63284 23.2043C6.0315 23.3552 6.02365 23.4516 6.02365 30.6641C6.02365 37.282 6.02365 37.282 4.976 37.282C3.64742 37.282 3.81378 37.0759 2.43957 40.424C1.1186 43.6423 1.10369 43.7233 1.77163 44.0687C2.40952 44.3985 39.2257 44.3027 39.6123 43.9701C40.0082 43.6296 40.0317 43.057 39.6622 42.7578C39.4165 42.5588 38.7331 42.5511 21.414 42.5511C4.32589 42.5511 3.42477 42.5412 3.49147 42.3549C4.80538 38.6896 2.98273 38.9656 25.8667 38.9666C48.756 38.9675 46.9168 38.6889 48.2414 42.3549C48.3077 42.5386 48.1224 42.5511 45.3294 42.5511C42.0145 42.5511 41.8981 42.5773 41.8981 43.3234C41.8981 44.1689 41.916 44.1728 45.896 44.2095C51.2114 44.2585 50.9673 44.5322 49.2856 40.4091C47.9483 37.1302 48.0874 37.3006 46.7149 37.2585C45.4519 37.2198 44.8811 16.8712 46.1225 16.1437C47.567 15.2971 48.7367 13.5147 48.7367 12.1599C48.7367 11.8336 48.7367 11.8336 49.5063 11.8336C50.4549 11.8336 50.8667 11.5823 50.8667 11.0034C50.8667 10.6443 45.3509 1.35969 44.7998 0.790966C44.5261 0.508679 7.69652 0.375495 7.14473 0.654868ZM13.2347 2.27639C14.3905 4.24085 9.32892 10.1475 6.48811 10.1495C3.81165 10.1515 3.20751 10.1244 3.25358 10.0043C3.34596 9.76361 7.72096 2.60229 7.90627 2.3885C8.08565 2.18155 13.1167 2.07572 13.2347 2.27639ZM22.1257 2.44455C20.7569 7.69455 18.5988 10.0968 15.2253 10.1255C12.4402 10.1492 11.7411 10.1262 11.7411 10.0106C11.7411 9.93099 12.4251 8.35386 13.2612 6.50565C14.0972 4.65745 14.8762 2.93088 14.9925 2.66877C15.2489 2.09085 22.2754 1.87 22.1257 2.44455ZM31.0648 2.28032C32.3124 4.29893 27.1365 10.152 24.1038 10.152C22.1754 10.152 20.5976 10.121 20.5976 10.0832C20.5976 9.97213 23.9836 2.48615 24.1034 2.33245C24.2277 2.1728 30.9671 2.12236 31.0648 2.28032ZM39.9923 2.34074C39.9923 5.88278 36.2391 10.0986 33.0618 10.1255C30.6596 10.1459 29.5662 10.1181 29.5662 10.0365C29.5662 9.97135 30.2545 8.39411 31.0955 6.53155C31.9367 4.66911 32.721 2.93088 32.8384 2.66877C33.0581 2.17897 39.9923 1.86103 39.9923 2.34074ZM43.8271 2.3885C44.0124 2.60229 48.3874 9.76361 48.4798 10.0043C48.5261 10.125 47.6155 10.152 43.4796 10.152C40.6983 10.152 38.4228 10.1313 38.4228 10.1062C38.4228 10.0442 41.6224 2.95341 41.8418 2.52897C42.0582 2.11058 43.4979 2.00868 43.8271 2.3885ZM11.6887 12.246C11.0382 15.7135 6.13553 16.1682 4.90347 12.8753C4.47825 11.7386 4.17589 11.8336 8.22219 11.8336C11.7661 11.8336 11.7661 11.8336 11.6887 12.246ZM20.5391 12.1979C19.8254 15.6046 15.3454 16.2248 13.8576 13.1228C13.2049 11.7619 13.0261 11.8336 17.0751 11.8336C20.6155 11.8336 20.6155 11.8336 20.5391 12.1979ZM29.3248 12.31C28.5084 15.9955 23.0925 16.0317 22.4058 12.3562C22.3082 11.8336 22.3082 11.8336 25.8693 11.8336C29.4303 11.8336 29.4303 11.8336 29.3248 12.31ZM38.1974 12.1419C38.1858 15.4293 32.8291 16.1678 31.4887 13.0668C30.9169 11.744 30.6868 11.8336 34.6583 11.8336C38.1985 11.8336 38.1985 11.8336 38.1974 12.1419ZM47.055 12.0565C47.055 15.3385 41.8047 16.2111 40.3553 13.1702C39.692 11.7789 39.563 11.8336 43.5112 11.8336C46.974 11.8336 47.055 11.8387 47.055 12.0565ZM28.3526 21.6221C27.9479 22.053 27.9754 27.966 28.3841 28.3745C28.7696 28.7601 39.649 28.8166 40.1199 28.4356C40.5185 28.1131 40.6006 22.1568 40.2132 21.6643C39.864 21.2203 28.7671 21.1809 28.3526 21.6221ZM33.3779 25.0062C33.3779 26.9681 33.3779 26.9681 31.5842 26.9681C29.7905 26.9681 29.7905 26.9681 29.7905 25.0062C29.7905 23.0443 29.7905 23.0443 31.5842 23.0443C33.3779 23.0443 33.3779 23.0443 33.3779 25.0062ZM38.7591 25.0062C38.7591 26.9681 38.7591 26.9681 36.9093 26.9681C35.0595 26.9681 35.0595 26.9681 35.0595 25.0062C35.0595 23.0443 35.0595 23.0443 36.9093 23.0443C38.7591 23.0443 38.7591 23.0443 38.7591 25.0062ZM18.7839 30.5583C18.031 31.3111 19.1243 32.3985 19.9038 31.6722C20.2595 31.3409 20.2354 30.7517 19.8538 30.4516C19.449 30.1331 19.1825 30.1598 18.7839 30.5583Z" fill="#21004C"/>
</svg>
